<svg width="28" height="28" viewBox="0 0 28 28" fill="none" xmlns="http://www.w3.org/2000/svg">
<path d="M24.0702 19.3528C23.4511 18.2875 22.5313 15.283 22.5313 11.375C22.5313 9.11237 21.6324 6.94241 20.0325 5.3425C18.4326 3.74258 16.2626 2.84375 14 2.84375C11.7374 2.84375 9.56742 3.74258 7.9675 5.3425C6.36758 6.94241 5.46875 9.11237 5.46875 11.375C5.46875 15.2841 4.54781 18.2875 3.92875 19.3528C3.79292 19.5854 3.72085 19.8497 3.7198 20.119C3.71876 20.3884 3.78877 20.6532 3.92279 20.8869C4.0568 21.1205 4.25007 21.3147 4.4831 21.4498C4.71612 21.5848 4.98065 21.6561 5.25 21.6562H9.89625C10.0556 22.6291 10.5556 23.5136 11.307 24.1518C12.0583 24.7901 13.012 25.1405 13.9978 25.1405C14.9836 25.1405 15.9373 24.7901 16.6887 24.1518C17.44 23.5136 17.94 22.6291 18.0994 21.6562H22.75C23.0192 21.6557 23.2834 21.5842 23.5161 21.4489C23.7489 21.3137 23.9418 21.1195 24.0756 20.8859C24.2093 20.6524 24.2792 20.3877 24.278 20.1185C24.2769 19.8493 24.2048 19.5852 24.0691 19.3528H24.0702ZM14 23.8437C13.3601 23.8435 12.7389 23.6275 12.2369 23.2305C11.735 22.8336 11.3816 22.2789 11.2339 21.6562H16.7661C16.6184 22.2789 16.265 22.8336 15.7631 23.2305C15.2611 23.6275 14.6399 23.8435 14 23.8437ZM22.937 20.2344C22.919 20.2679 22.8922 20.2958 22.8594 20.3151C22.8266 20.3344 22.7891 20.3443 22.7511 20.3437H5.25C5.21197 20.3443 5.17451 20.3344 5.14173 20.3151C5.10894 20.2958 5.08208 20.2679 5.06406 20.2344C5.04486 20.2011 5.03476 20.1634 5.03476 20.125C5.03476 20.0866 5.04486 20.0489 5.06406 20.0156C5.89203 18.5937 6.78125 15.2786 6.78125 11.375C6.78125 9.46047 7.5418 7.62435 8.89557 6.27057C10.2494 4.91679 12.0855 4.15625 14 4.15625C15.9145 4.15625 17.7506 4.91679 19.1044 6.27057C20.4582 7.62435 21.2188 9.46047 21.2188 11.375C21.2188 15.2775 22.1091 18.5883 22.937 20.0156C22.9562 20.0489 22.9663 20.0866 22.9663 20.125C22.9663 20.1634 22.9562 20.2011 22.937 20.2344Z" fill="black" fill-opacity="0.3"/>
</svg>
