<svg width="28" height="28" viewBox="0 0 28 28" fill="none" xmlns="http://www.w3.org/2000/svg">
<path d="M24.5 5.46875H3.5C3.32595 5.46875 3.15903 5.53789 3.03596 5.66096C2.91289 5.78403 2.84375 5.95095 2.84375 6.125V21C2.84375 21.4061 3.00508 21.7956 3.29224 22.0828C3.57941 22.3699 3.96889 22.5312 4.375 22.5312H23.625C24.0311 22.5312 24.4206 22.3699 24.7078 22.0828C24.9949 21.7956 25.1562 21.4061 25.1562 21V6.125C25.1562 5.95095 25.0871 5.78403 24.964 5.66096C24.841 5.53789 24.674 5.46875 24.5 5.46875ZM22.8134 6.78125L14 14.8597L5.18656 6.78125H22.8134ZM23.625 21.2188H4.375C4.31698 21.2188 4.26134 21.1957 4.22032 21.1547C4.1793 21.1137 4.15625 21.058 4.15625 21V7.61687L13.5625 16.2334C13.6835 16.3441 13.8415 16.4055 14.0055 16.4055C14.1694 16.4055 14.3275 16.3441 14.4484 16.2334L23.8438 7.61687V21C23.8438 21.058 23.8207 21.1137 23.7797 21.1547C23.7387 21.1957 23.683 21.2188 23.625 21.2188Z" fill="black" fill-opacity="0.3"/>
</svg>
