<svg width="28" height="28" viewBox="0 0 28 28" fill="none" xmlns="http://www.w3.org/2000/svg">
<path d="M23.3333 9.33341L14 15.1667L4.66667 9.33341V7.00008L14 12.8334L23.3333 7.00008M23.3333 4.66675H4.66667C3.37167 4.66675 2.33334 5.70508 2.33334 7.00008V21.0001C2.33334 21.6189 2.57917 22.2124 3.01675 22.65C3.45434 23.0876 4.04783 23.3334 4.66667 23.3334H23.3333C23.9522 23.3334 24.5457 23.0876 24.9832 22.65C25.4208 22.2124 25.6667 21.6189 25.6667 21.0001V7.00008C25.6667 6.38124 25.4208 5.78775 24.9832 5.35017C24.5457 4.91258 23.9522 4.66675 23.3333 4.66675Z" fill="#007AD6"/>
</svg>
