<svg width="28" height="28" viewBox="0 0 28 28" fill="none" xmlns="http://www.w3.org/2000/svg">
<path d="M23.0417 11.6666C23.0417 11.4346 22.9495 11.212 22.7854 11.0479C22.6213 10.8838 22.3987 10.7916 22.1667 10.7916C21.9346 10.7916 21.712 10.8838 21.548 11.0479C21.3839 11.212 21.2917 11.4346 21.2917 11.6666H23.0417ZM6.70834 11.6666C6.70834 11.4346 6.61615 11.212 6.45206 11.0479C6.28796 10.8838 6.0654 10.7916 5.83334 10.7916C5.60128 10.7916 5.37872 10.8838 5.21462 11.0479C5.05053 11.212 4.95834 11.4346 4.95834 11.6666H6.70834ZM23.8817 14.6183C23.9618 14.7043 24.0584 14.7732 24.1657 14.821C24.273 14.8689 24.3889 14.8946 24.5064 14.8967C24.6239 14.8987 24.7406 14.8771 24.8495 14.8331C24.9585 14.7891 25.0575 14.7236 25.1406 14.6405C25.2236 14.5574 25.2891 14.4584 25.3331 14.3495C25.3772 14.2405 25.3988 14.1238 25.3967 14.0064C25.3946 13.8889 25.3689 13.773 25.3211 13.6657C25.2733 13.5583 25.2043 13.4617 25.1183 13.3816L23.8817 14.6183ZM14 3.49996L14.6183 2.88163C14.4543 2.71777 14.2319 2.62573 14 2.62573C13.7681 2.62573 13.5457 2.71777 13.3817 2.88163L14 3.49996ZM2.88167 13.3816C2.79571 13.4617 2.72675 13.5583 2.67893 13.6657C2.6311 13.773 2.60539 13.8889 2.60332 14.0064C2.60124 14.1238 2.62286 14.2405 2.66686 14.3495C2.71087 14.4584 2.77637 14.5574 2.85946 14.6405C2.94255 14.7236 3.04152 14.7891 3.15048 14.8331C3.25943 14.8771 3.37613 14.8987 3.49362 14.8967C3.6111 14.8946 3.72697 14.8689 3.8343 14.821C3.94163 14.7732 4.03823 14.7043 4.11834 14.6183L2.88167 13.3816ZM8.16667 25.375H19.8333V23.625H8.16667V25.375ZM23.0417 22.1666V11.6666H21.2917V22.1666H23.0417ZM6.70834 22.1666V11.6666H4.95834V22.1666H6.70834ZM25.1183 13.3816L14.6183 2.88163L13.3817 4.1183L23.8817 14.6183L25.1183 13.3816ZM13.3817 2.88163L2.88167 13.3816L4.11834 14.6183L14.6183 4.1183L13.3817 2.88163ZM19.8333 25.375C20.6842 25.375 21.5003 25.0369 22.102 24.4353C22.7037 23.8336 23.0417 23.0175 23.0417 22.1666H21.2917C21.2917 22.9716 20.6383 23.625 19.8333 23.625V25.375ZM8.16667 23.625C7.36167 23.625 6.70834 22.9716 6.70834 22.1666H4.95834C4.95834 23.0175 5.29636 23.8336 5.89804 24.4353C6.49972 25.0369 7.31577 25.375 8.16667 25.375V23.625Z" fill="black" fill-opacity="0.3"/>
</svg>
