<svg width="28" height="28" viewBox="0 0 28 28" fill="none" xmlns="http://www.w3.org/2000/svg">
<path fill-rule="evenodd" clip-rule="evenodd" d="M14.8248 2.6752C14.6061 2.45649 14.3094 2.33362 14 2.33362C13.6906 2.33362 13.394 2.45649 13.1752 2.6752L5.0085 10.8419L2.67517 13.1752C2.56374 13.2828 2.47486 13.4116 2.41372 13.5539C2.35257 13.6962 2.32039 13.8493 2.31904 14.0042C2.3177 14.1591 2.34722 14.3128 2.40588 14.4561C2.46454 14.5995 2.55117 14.7298 2.66071 14.8393C2.77025 14.9489 2.90051 15.0355 3.04389 15.0942C3.18727 15.1528 3.3409 15.1823 3.4958 15.181C3.65071 15.1796 3.8038 15.1475 3.94614 15.0863C4.08848 15.0252 4.21722 14.9363 4.32484 14.8249L4.66667 14.483V22.1667C4.66667 23.095 5.03542 23.9852 5.6918 24.6416C6.34817 25.298 7.23841 25.6667 8.16667 25.6667H19.8333C20.7616 25.6667 21.6518 25.298 22.3082 24.6416C22.9646 23.9852 23.3333 23.095 23.3333 22.1667V14.483L23.6752 14.8249C23.8952 15.0374 24.1899 15.155 24.4958 15.1523C24.8017 15.1497 25.0943 15.027 25.3106 14.8107C25.5269 14.5943 25.6496 14.3017 25.6523 13.9958C25.6549 13.6899 25.5374 13.3952 25.3248 13.1752L14.8248 2.6752Z" fill="#007AD6"/>
</svg>
