<svg width="28" height="28" viewBox="0 0 28 28" fill="none" xmlns="http://www.w3.org/2000/svg">
<path d="M14 2.33325C12.2208 2.33325 10.5145 3.04002 9.25649 4.29808C7.99843 5.55613 7.29166 7.26242 7.29166 9.04159V12.5416C7.29139 14.245 7.93916 15.8848 9.10356 17.1282C10.268 18.3715 11.8618 19.1253 13.5616 19.2367C15.2614 19.348 16.9399 18.8085 18.2565 17.7276C19.5731 16.6468 20.4293 15.1055 20.6512 13.4166H15.1667C14.9346 13.4166 14.712 13.3244 14.5479 13.1603C14.3839 12.9962 14.2917 12.7737 14.2917 12.5416C14.2917 12.3095 14.3839 12.087 14.5479 11.9229C14.712 11.7588 14.9346 11.6666 15.1667 11.6666H20.7083V9.91659H15.1667C14.9346 9.91659 14.712 9.8244 14.5479 9.6603C14.3839 9.49621 14.2917 9.27365 14.2917 9.04159C14.2917 8.80952 14.3839 8.58696 14.5479 8.42287C14.712 8.25877 14.9346 8.16659 15.1667 8.16659H20.6512C20.4386 6.55296 19.6468 5.07161 18.4232 3.99844C17.1996 2.92527 15.6276 2.33347 14 2.33325Z" fill="#007AD6"/>
<path fill-rule="evenodd" clip-rule="evenodd" d="M4.66666 10.5C4.89873 10.5 5.12129 10.5922 5.28538 10.7563C5.44948 10.9204 5.54166 11.1429 5.54166 11.375V12.5417C5.54166 13.6524 5.76045 14.7523 6.18552 15.7785C6.61059 16.8047 7.23362 17.7372 8.01905 18.5226C8.80448 19.308 9.73692 19.9311 10.7631 20.3561C11.7893 20.7812 12.8892 21 14 21C15.1108 21 16.2106 20.7812 17.2369 20.3561C18.2631 19.9311 19.1955 19.308 19.9809 18.5226C20.7664 17.7372 21.3894 16.8047 21.8145 15.7785C22.2395 14.7523 22.4583 13.6524 22.4583 12.5417V11.375C22.4583 11.1429 22.5505 10.9204 22.7146 10.7563C22.8787 10.5922 23.1013 10.5 23.3333 10.5C23.5654 10.5 23.788 10.5922 23.952 10.7563C24.1161 10.9204 24.2083 11.1429 24.2083 11.375V12.5417C24.2084 15.0977 23.2496 17.5607 21.5215 19.4439C19.7933 21.3272 17.4216 22.4936 14.875 22.7127V25.375C14.875 25.6071 14.7828 25.8296 14.6187 25.9937C14.4546 26.1578 14.2321 26.25 14 26.25C13.7679 26.25 13.5454 26.1578 13.3813 25.9937C13.2172 25.8296 13.125 25.6071 13.125 25.375V22.7127C10.5784 22.4936 8.20668 21.3272 6.47854 19.4439C4.7504 17.5607 3.79161 15.0977 3.79166 12.5417V11.375C3.79166 11.1429 3.88385 10.9204 4.04795 10.7563C4.21204 10.5922 4.4346 10.5 4.66666 10.5Z" fill="#007AD6"/>
</svg>
