<svg width="28" height="28" viewBox="0 0 28 28" fill="none" xmlns="http://www.w3.org/2000/svg">
<path d="M8.16666 9.33333C8.16666 7.78624 8.78125 6.30251 9.87521 5.20854C10.9692 4.11458 12.4529 3.5 14 3.5C15.5471 3.5 17.0308 4.11458 18.1248 5.20854C19.2187 6.30251 19.8333 7.78624 19.8333 9.33333V12.8333C19.8333 14.3804 19.2187 15.8642 18.1248 16.9581C17.0308 18.0521 15.5471 18.6667 14 18.6667C12.4529 18.6667 10.9692 18.0521 9.87521 16.9581C8.78125 15.8642 8.16666 14.3804 8.16666 12.8333V9.33333Z" stroke="black" stroke-opacity="0.3" stroke-width="1.3125"/>
<path d="M15.1667 9.33337H19.8333M15.1667 12.8334H19.8333M23.3333 11.6667V12.8334C23.3333 15.3087 22.35 17.6827 20.5997 19.433C18.8493 21.1834 16.4754 22.1667 14 22.1667M14 22.1667C11.5246 22.1667 9.15067 21.1834 7.40033 19.433C5.64999 17.6827 4.66666 15.3087 4.66666 12.8334V11.6667M14 22.1667V25.6667" stroke="black" stroke-opacity="0.3" stroke-width="1.3125" stroke-linecap="round"/>
</svg>
