<svg width="97" height="64" viewBox="0 0 97 64" fill="none" xmlns="http://www.w3.org/2000/svg">
<path fill-rule="evenodd" clip-rule="evenodd" d="M82.6607 36.5303C90.8744 34.6425 97 27.2866 97 18.5C97 8.28273 88.7173 0 78.5 0C73.6809 0 69.2923 1.84259 66 4.86167V2L60 2V18.4938C60 18.4958 60 18.4979 60 18.5C60 18.5021 60 18.5042 60 18.5062L60 63H66V32.1383C68.6795 34.5955 72.0853 36.2734 75.8583 36.8128L91.3435 63.0159L96.5089 59.9633L82.6607 36.5303ZM78.5 30.9972C71.598 30.9972 66.0028 25.402 66.0028 18.5C66.0028 11.598 71.598 6.00282 78.5 6.00282C85.402 6.00282 90.9972 11.598 90.9972 18.5C90.9972 25.402 85.402 30.9972 78.5 30.9972ZM44 63L44 2L50 2L50 63H44ZM42 2H0V8H42V2ZM42 23H0V29H42V23ZM0 10H42V16H0V10ZM42 31H0V37H42V31ZM52 2L52 63H58L58 2L52 2Z" fill="url(#paint0_linear_2_19)"/>
<defs>
<linearGradient id="paint0_linear_2_19" x1="48.5" y1="0" x2="48.5" y2="63.0159" gradientUnits="userSpaceOnUse">
<stop stop-color="#004E89"/>
<stop offset="1" stop-color="#248232"/>
</linearGradient>
</defs>
</svg>
