<svg width="21" height="21" viewBox="0 0 21 21" fill="none" xmlns="http://www.w3.org/2000/svg">
<path d="M13.0725 4.54125C13.4033 4.15999 13.6555 3.71715 13.8147 3.23814C13.9739 2.75914 14.0368 2.25341 14 1.75C12.9845 1.83198 12.0418 2.30961 11.375 3.08C11.0557 3.44923 10.8138 3.87877 10.6635 4.34319C10.5132 4.80761 10.4576 5.29746 10.5 5.78375C10.9954 5.78788 11.4851 5.67796 11.9312 5.4625C12.3772 5.24704 12.7678 4.93183 13.0725 4.54125ZM15.2775 11.0513C15.2834 10.3808 15.46 9.72284 15.7907 9.13955C16.1214 8.55626 16.5952 8.06685 17.1675 7.7175C16.8063 7.19708 16.3289 6.76798 15.773 6.46422C15.2171 6.16045 14.5981 5.99038 13.965 5.9675C12.6 5.8275 11.34 6.76375 10.6138 6.76375C9.88751 6.76375 8.86376 5.985 7.72626 6.0025C6.98263 6.027 6.25803 6.24381 5.62316 6.63179C4.98828 7.01977 4.4648 7.56567 4.10376 8.21625C2.56376 10.8938 3.71001 14.875 5.25001 17.0362C5.95001 18.095 6.82501 19.2938 7.98001 19.25C9.13501 19.2062 9.51126 18.5325 10.85 18.5325C12.1888 18.5325 12.6 19.25 13.7375 19.2237C14.875 19.1975 15.68 18.1388 16.415 17.08C16.9357 16.3113 17.3424 15.4714 17.6225 14.5863C16.9291 14.2905 16.3374 13.7981 15.9207 13.1699C15.5039 12.5417 15.2803 11.8051 15.2775 11.0513Z" fill="#212121" fill-opacity="0.7"/>
</svg>
