<svg width="20" height="20" viewBox="0 0 20 20" fill="none" xmlns="http://www.w3.org/2000/svg">
<g id="iconamoon:comment-thin">
<path id="Vector" d="M10 17.5C11.4834 17.5 12.9334 17.0601 14.1668 16.236C15.4001 15.4119 16.3614 14.2406 16.9291 12.8701C17.4968 11.4997 17.6453 9.99168 17.3559 8.53683C17.0665 7.08197 16.3522 5.7456 15.3033 4.6967C14.2544 3.64781 12.918 2.9335 11.4632 2.64411C10.0083 2.35472 8.50032 2.50325 7.12987 3.07091C5.75943 3.63856 4.58809 4.59986 3.76398 5.83323C2.93987 7.0666 2.5 8.51664 2.5 10C2.5 11.24 2.8 12.4083 3.33333 13.4392L2.5 17.5L6.56083 16.6667C7.59083 17.1992 8.76083 17.5 10 17.5Z" stroke="#212121" stroke-opacity="0.3" stroke-width="1.16667" stroke-linecap="round" stroke-linejoin="round"/>
</g>
</svg>
