<svg width="20" height="20" viewBox="0 0 20 20" fill="none" xmlns="http://www.w3.org/2000/svg">
<path d="M4.58331 8.12498V16.875C4.58331 16.99 4.67665 17.0833 4.79165 17.0833H15.2083C15.2636 17.0833 15.3166 17.0614 15.3556 17.0223C15.3947 16.9832 15.4166 16.9302 15.4166 16.875V8.12498C15.4166 8.06972 15.3947 8.01673 15.3556 7.97766C15.3166 7.93859 15.2636 7.91665 15.2083 7.91665H13.125C12.9592 7.91665 12.8002 7.8508 12.683 7.73359C12.5658 7.61638 12.5 7.45741 12.5 7.29165C12.5 7.12588 12.5658 6.96691 12.683 6.8497C12.8002 6.73249 12.9592 6.66665 13.125 6.66665H15.2083C16.0133 6.66665 16.6666 7.31998 16.6666 8.12498V16.875C16.6666 17.2618 16.513 17.6327 16.2395 17.9062C15.966 18.1797 15.5951 18.3333 15.2083 18.3333H4.79165C4.40487 18.3333 4.03394 18.1797 3.76045 17.9062C3.48696 17.6327 3.33331 17.2618 3.33331 16.875V8.12498C3.33331 7.31998 3.98665 6.66665 4.79165 6.66665H6.87498C7.04074 6.66665 7.19971 6.73249 7.31692 6.8497C7.43413 6.96691 7.49998 7.12588 7.49998 7.29165C7.49998 7.45741 7.43413 7.61638 7.31692 7.73359C7.19971 7.8508 7.04074 7.91665 6.87498 7.91665H4.79165C4.73639 7.91665 4.6834 7.93859 4.64433 7.97766C4.60526 8.01673 4.58331 8.06972 4.58331 8.12498ZM10.4416 1.01665L13.15 3.72498C13.2322 3.80137 13.2924 3.89854 13.3241 4.00625C13.3557 4.11396 13.3578 4.22821 13.33 4.33698C13.3022 4.44575 13.2455 4.54501 13.166 4.62429C13.0866 4.70357 12.9872 4.75995 12.8783 4.78748C12.7697 4.81533 12.6555 4.81338 12.5479 4.78185C12.4403 4.75033 12.3431 4.69038 12.2666 4.60831L10.625 2.96665V11.875C10.625 12.0407 10.5591 12.1997 10.4419 12.3169C10.3247 12.4341 10.1657 12.5 9.99998 12.5C9.83422 12.5 9.67525 12.4341 9.55804 12.3169C9.44083 12.1997 9.37498 12.0407 9.37498 11.875V2.96665L7.73331 4.60831C7.61476 4.71865 7.45805 4.77874 7.29612 4.77594C7.13419 4.77314 6.97965 4.70768 6.86498 4.59331C6.75061 4.47864 6.68515 4.3241 6.68235 4.16217C6.67955 4.00024 6.73964 3.84353 6.84998 3.72498L9.55831 1.01665C9.6755 0.899604 9.83435 0.833862 9.99998 0.833862C10.1656 0.833862 10.3245 0.899604 10.4416 1.01665Z" fill="#212121" fill-opacity="0.3"/>
</svg>
