<svg width="21" height="20" viewBox="0 0 21 20" fill="none" xmlns="http://www.w3.org/2000/svg">
<path d="M4.8125 12.5H3.5625C3.38991 12.5 3.25 12.6399 3.25 12.8125V18.4375C3.25 18.6101 3.38991 18.75 3.5625 18.75H4.8125C4.98509 18.75 5.125 18.6101 5.125 18.4375V12.8125C5.125 12.6399 4.98509 12.5 4.8125 12.5Z" stroke="#212121" stroke-opacity="0.3" stroke-width="1.25" stroke-linecap="round" stroke-linejoin="round"/>
<path d="M13.5625 8.75H12.3125C12.1399 8.75 12 8.88991 12 9.0625V18.4375C12 18.6101 12.1399 18.75 12.3125 18.75H13.5625C13.7351 18.75 13.875 18.6101 13.875 18.4375V9.0625C13.875 8.88991 13.7351 8.75 13.5625 8.75Z" stroke="#212121" stroke-opacity="0.3" stroke-width="1.25" stroke-linecap="round" stroke-linejoin="round"/>
<path d="M17.9375 4.375H16.6875C16.5149 4.375 16.375 4.51491 16.375 4.6875V18.4375C16.375 18.6101 16.5149 18.75 16.6875 18.75H17.9375C18.1101 18.75 18.25 18.6101 18.25 18.4375V4.6875C18.25 4.51491 18.1101 4.375 17.9375 4.375Z" stroke="#212121" stroke-opacity="0.3" stroke-width="1.25" stroke-linecap="round" stroke-linejoin="round"/>
<path d="M9.1875 1.25H7.9375C7.76491 1.25 7.625 1.38991 7.625 1.5625V18.4375C7.625 18.6101 7.76491 18.75 7.9375 18.75H9.1875C9.36009 18.75 9.5 18.6101 9.5 18.4375V1.5625C9.5 1.38991 9.36009 1.25 9.1875 1.25Z" stroke="#212121" stroke-opacity="0.3" stroke-width="1.25" stroke-linecap="round" stroke-linejoin="round"/>
</svg>
