<svg width="21" height="21" viewBox="0 0 21 21" fill="none" xmlns="http://www.w3.org/2000/svg">
<g clip-path="url(#clip0_469_734)">
<path d="M10.5 2.625C10.7143 2.62503 10.9212 2.70371 11.0813 2.84613C11.2415 2.98854 11.3438 3.18478 11.3689 3.39762L11.375 3.5V17.5C11.3748 17.723 11.2894 17.9375 11.1363 18.0997C10.9832 18.2619 10.7739 18.3595 10.5513 18.3725C10.3286 18.3856 10.1094 18.3132 9.9384 18.17C9.76738 18.0269 9.65747 17.8238 9.63112 17.6024L9.625 17.5V3.5C9.625 3.26794 9.71719 3.04538 9.88128 2.88128C10.0454 2.71719 10.2679 2.625 10.5 2.625ZM7 5.25C7.23206 5.25 7.45462 5.34219 7.61872 5.50628C7.78281 5.67038 7.875 5.89294 7.875 6.125V14.875C7.875 15.1071 7.78281 15.3296 7.61872 15.4937C7.45462 15.6578 7.23206 15.75 7 15.75C6.76794 15.75 6.54538 15.6578 6.38128 15.4937C6.21719 15.3296 6.125 15.1071 6.125 14.875V6.125C6.125 5.89294 6.21719 5.67038 6.38128 5.50628C6.54538 5.34219 6.76794 5.25 7 5.25ZM14 5.25C14.2321 5.25 14.4546 5.34219 14.6187 5.50628C14.7828 5.67038 14.875 5.89294 14.875 6.125V14.875C14.875 15.1071 14.7828 15.3296 14.6187 15.4937C14.4546 15.6578 14.2321 15.75 14 15.75C13.7679 15.75 13.5454 15.6578 13.3813 15.4937C13.2172 15.3296 13.125 15.1071 13.125 14.875V6.125C13.125 5.89294 13.2172 5.67038 13.3813 5.50628C13.5454 5.34219 13.7679 5.25 14 5.25ZM3.5 7.875C3.73206 7.875 3.95462 7.96719 4.11872 8.13128C4.28281 8.29538 4.375 8.51794 4.375 8.75V12.25C4.375 12.4821 4.28281 12.7046 4.11872 12.8687C3.95462 13.0328 3.73206 13.125 3.5 13.125C3.26794 13.125 3.04538 13.0328 2.88128 12.8687C2.71719 12.7046 2.625 12.4821 2.625 12.25V8.75C2.625 8.51794 2.71719 8.29538 2.88128 8.13128C3.04538 7.96719 3.26794 7.875 3.5 7.875ZM17.5 7.875C17.7143 7.87503 17.9212 7.95371 18.0813 8.09613C18.2415 8.23854 18.3438 8.43478 18.3689 8.64763L18.375 8.75V12.25C18.3748 12.473 18.2894 12.6875 18.1363 12.8497C17.9832 13.0119 17.7739 13.1095 17.5513 13.1225C17.3286 13.1356 17.1094 13.0632 16.9384 12.92C16.7674 12.7769 16.6575 12.5738 16.6311 12.3524L16.625 12.25V8.75C16.625 8.51794 16.7172 8.29538 16.8813 8.13128C17.0454 7.96719 17.2679 7.875 17.5 7.875Z" fill="#70C2FF"/>
</g>
<defs>
<clipPath id="clip0_469_734">
<rect width="21" height="21" fill="white"/>
</clipPath>
</defs>
</svg>
